<?xml version="1.0" encoding="UTF-8"?>
<level>
  <owner>Fistachka</owner>
  <repo>kabynebylo-2</repo>
  <version>v1.0.3</version>
  <next number="1" owner="Fistachka" repo="elochka-two"/>
  <readme>
    <ru>83327b7a4a0a605f0fd063521c8347e3af8ba3c7e26be58f2edfc5a2afb628fc</ru>
    <en>8237f996964e27103a84971ce5373dc5f3f431f214c9dbf98e0eaa7ca388a31a</en>
  </readme>
  <license>b1b99f5538d1fd3702219bff50c665196dfa42f6ee755c37fe41a6178d6bc6e5</license>
  <exercise number="1">
    <scale>minor</scale>
    <bpm>132</bpm>
    <lowestNote>5</lowestNote>
    <tonalities>12</tonalities>
    <video name="11t.mp4" size="642944" type="video/mp4" volume="0.5">c9f3174667a1d90326ac35593c5a63d7eff1b7c14b1174158e2eee1be1a0cc8d</video>
    <notes>
      <note number="1" values="5" ticks="804" durationTicks="71" ppq="192" velocity="0.681"/>
      <note number="2" values="5" ticks="896" durationTicks="58" ppq="192" velocity="0.803"/>
      <note number="3" values="58" ticks="996" durationTicks="136" ppq="192" velocity="0.689"/>
      <note number="4" values="28" ticks="1154" durationTicks="93" ppq="192" velocity="0.784"/>
      <note number="5" values="48" ticks="1255" durationTicks="91" ppq="192" velocity="0.671"/>
      <note number="6" values="38" ticks="1346" durationTicks="95" ppq="192" velocity="0.819"/>
      <note number="7" values="18" ticks="1441" durationTicks="89" ppq="192" velocity="0.719"/>
    </notes>
  </exercise>
  <exercise number="2">
    <scale>minor</scale>
    <bpm>132</bpm>
    <lowestNote>7</lowestNote>
    <tonalities>12</tonalities>
    <video name="12t.mp4" size="396766" type="video/mp4" volume="0.5">1982a0c389400337f19135074c21a726ea425b58fbc710080818145d1d86e6c0</video>
    <notes>
      <note number="1" values="7" ticks="214" durationTicks="70" ppq="192" velocity="0.982"/>
      <note number="2" values="7" ticks="313" durationTicks="88" ppq="192" velocity="0.992"/>
      <note number="3" values="78" ticks="408" durationTicks="169" ppq="192" velocity="1"/>
      <note number="4" values="68" ticks="615" durationTicks="63" ppq="192" velocity="1"/>
      <note number="5" values="68" ticks="723" durationTicks="246" ppq="192" velocity="1"/>
      <note number="6" values="58" ticks="1007" durationTicks="466" ppq="192" velocity="1"/>
    </notes>
  </exercise>
  <exercise number="3">
    <scale>minor</scale>
    <bpm>132</bpm>
    <lowestNote>18</lowestNote>
    <tonalities>12</tonalities>
    <video name="13t.mp4" size="463236" type="video/mp4" volume="0.5">b2bc1228f5cfca4fec8528e4ffa2a755061dee3a14687d56c75220fbd73bc855</video>
    <notes>
      <note number="1" values="188" ticks="189" durationTicks="96" ppq="192" velocity="0.952"/>
      <note number="2" values="68" ticks="290" durationTicks="61" ppq="192" velocity="0.957"/>
      <note number="3" values="48" ticks="385" durationTicks="96" ppq="192" velocity="0.947"/>
      <note number="4" values="28" ticks="497" durationTicks="78" ppq="192" velocity="0.954"/>
      <note number="5" values="68" ticks="655" durationTicks="162" ppq="192" velocity="0.942"/>
      <note number="6" values="58" ticks="866" durationTicks="93" ppq="192" velocity="0.952"/>
      <note number="7" values="58" ticks="1055" durationTicks="350" ppq="192" velocity="0.912"/>
    </notes>
  </exercise>
  <exercise number="4">
    <scale>minor</scale>
    <bpm>132</bpm>
    <lowestNote>5</lowestNote>
    <tonalities>12</tonalities>
    <video name="14t.mp4" size="440880" type="video/mp4" volume="0.5">6478a2aa5d3b1e0e16e7e88d1301a9d4ffb7d112efc5967ae4bb0272e9447d78</video>
    <notes>
      <note number="1" values="5" ticks="99" durationTicks="78" ppq="192" velocity="0.797"/>
      <note number="2" values="5" ticks="207" durationTicks="179" ppq="192" velocity="0.676"/>
      <note number="3" values="58" ticks="350" durationTicks="274" ppq="192" velocity="0.824"/>
      <note number="4" values="48" ticks="672" durationTicks="88" ppq="192" velocity="0.674"/>
      <note number="5" values="48" ticks="798" durationTicks="198" ppq="192" velocity="0.844"/>
      <note number="6" values="38" ticks="1077" durationTicks="190" ppq="192" velocity="0.819"/>
    </notes>
  </exercise>
  <exercise number="5">
    <scale>minor</scale>
    <bpm>132</bpm>
    <lowestNote>5</lowestNote>
    <tonalities>12</tonalities>
    <video name="15t.mp4" size="518227" type="video/mp4" volume="0.5">916acec56961f7d691796062407f65a4717b6b22434e6904857ee7210e33e011</video>
    <notes>
      <note number="1" values="5" ticks="192" durationTicks="59" ppq="192" velocity="0.747"/>
      <note number="2" values="5" ticks="290" durationTicks="99" ppq="192" velocity="0.782"/>
      <note number="3" values="58" ticks="410" durationTicks="126" ppq="192" velocity="0.824"/>
      <note number="4" values="28" ticks="564" durationTicks="120" ppq="192" velocity="0.784"/>
      <note number="5" values="48" ticks="760" durationTicks="83" ppq="192" velocity="0.812"/>
      <note number="6" values="38" ticks="863" durationTicks="86" ppq="192" velocity="0.724"/>
      <note number="7" values="18" ticks="1009" durationTicks="201" ppq="192" velocity="0.839"/>
    </notes>
  </exercise>
  <exercise number="6">
    <scale>minor</scale>
    <bpm>132</bpm>
    <lowestNote>7</lowestNote>
    <tonalities>12</tonalities>
    <video name="16t.mp4" size="584094" type="video/mp4" volume="0.5">d89af4ffdadf1d702a512cb88e73f578da40a85d75730658ce672151e613f276</video>
    <notes>
      <note number="1" values="7" ticks="143" durationTicks="96" ppq="192" velocity="0.762"/>
      <note number="2" values="7" ticks="255" durationTicks="144" ppq="192" velocity="0.754"/>
      <note number="3" values="78" ticks="435" durationTicks="355" ppq="192" velocity="0.887"/>
      <note number="4" values="68" ticks="892" durationTicks="153" ppq="192" velocity="0.689"/>
      <note number="5" values="68" ticks="1094" durationTicks="311" ppq="192" velocity="0.824"/>
      <note number="6" values="58" ticks="1471" durationTicks="422" ppq="192" velocity="0.819"/>
    </notes>
  </exercise>
  <exercise number="7">
    <scale>minor</scale>
    <bpm>132</bpm>
    <lowestNote>18</lowestNote>
    <tonalities>12</tonalities>
    <video name="17t.mp4" size="719620" type="video/mp4" volume="0.5">8435bc2f40d451f90a03f8d96c98e22a87902f0860011d42a2622151b34bec77</video>
    <notes>
      <note number="1" values="188" ticks="431" durationTicks="191" ppq="192" velocity="0.832"/>
      <note number="2" values="68" ticks="671" durationTicks="76" ppq="192" velocity="0.752"/>
      <note number="3" values="48" ticks="778" durationTicks="96" ppq="192" velocity="0.729"/>
      <note number="4" values="28" ticks="872" durationTicks="93" ppq="192" velocity="0.714"/>
      <note number="5" values="68" ticks="1011" durationTicks="91" ppq="192" velocity="0.852"/>
      <note number="6" values="58" ticks="1108" durationTicks="67" ppq="192" velocity="0.819"/>
      <note number="7" values="58" ticks="1206" durationTicks="184" ppq="192" velocity="0.779"/>
    </notes>
  </exercise>
  <exercise number="8">
    <scale>minor</scale>
    <bpm>132</bpm>
    <lowestNote>5</lowestNote>
    <tonalities>12</tonalities>
    <video name="18t.mp4" size="554729" type="video/mp4" volume="0.5">9dd58072acfff68c77d156c4f931b36edc8d8674bc4dcc6701cc958d6130f0ad</video>
    <notes>
      <note number="1" values="5" ticks="68" durationTicks="69" ppq="192" velocity="0.976"/>
      <note number="2" values="5" ticks="166" durationTicks="91" ppq="192" velocity="0.984"/>
      <note number="3" values="58" ticks="263" durationTicks="86" ppq="192" velocity="0.919"/>
      <note number="4" values="48" ticks="357" durationTicks="63" ppq="192" velocity="1"/>
      <note number="5" values="48" ticks="453" durationTicks="91" ppq="192" velocity="1"/>
      <note number="6" values="38" ticks="543" durationTicks="81" ppq="192" velocity="1"/>
    </notes>
  </exercise>
  <exercise number="9">
    <scale>minor</scale>
    <bpm>132</bpm>
    <lowestNote>18</lowestNote>
    <tonalities>12</tonalities>
    <video name="19t.mp4" size="614926" type="video/mp4" volume="0.5">052d12bea4b9d368ebcc3d5dab7fed9cbde13b15c2c2af2fbc90b5d30c7180b2</video>
    <notes>
      <note number="1" values="188" ticks="49" durationTicks="96" ppq="192" velocity="0.945"/>
      <note number="2" values="68" ticks="191" durationTicks="78" ppq="192" velocity="0.857"/>
      <note number="3" values="48" ticks="291" durationTicks="96" ppq="192" velocity="0.842"/>
      <note number="4" values="28" ticks="390" durationTicks="90" ppq="192" velocity="0.782"/>
      <note number="5" values="68" ticks="495" durationTicks="91" ppq="192" velocity="0.937"/>
      <note number="6" values="58" ticks="603" durationTicks="55" ppq="192" velocity="0.802"/>
      <note number="7" values="58" ticks="692" durationTicks="170" ppq="192" velocity="0.906"/>
    </notes>
  </exercise>
  <exercise number="10">
    <scale>minor</scale>
    <bpm>132</bpm>
    <lowestNote>5</lowestNote>
    <tonalities>12</tonalities>
    <video name="20t.mp4" size="505316" type="video/mp4" volume="0.5">747b9017b674f49cc99f016551d2e0cbd97f24f01a3e3d94d377393dbd380a7a</video>
    <notes>
      <note number="1" values="5" ticks="107" durationTicks="69" ppq="192" velocity="0.794"/>
      <note number="2" values="5" ticks="207" durationTicks="93" ppq="192" velocity="0.724"/>
      <note number="3" values="58" ticks="305" durationTicks="96" ppq="192" velocity="0.752"/>
      <note number="4" values="79" ticks="399" durationTicks="93" ppq="192" velocity="0.706"/>
      <note number="5" values="28" ticks="496" durationTicks="91" ppq="192" velocity="0.754"/>
      <note number="6" values="18" ticks="591" durationTicks="190" ppq="192" velocity="0.694"/>
    </notes>
  </exercise>
</level>
